<svg width="22" height="22" viewBox="0 0 22 22" fill="none" xmlns="http://www.w3.org/2000/svg">
<path d="M1.43667 10.5633C1.20087 10.5524 1 10.7708 1 11.0001C1 11.5263 1.04585 12.0482 1.12445 12.5679C1.27947 13.5811 1.60261 14.5659 2.05893 15.483C2.50433 16.374 3.09165 17.1994 3.77941 17.92C4.46498 18.6384 5.26627 19.2585 6.13524 19.7411C7.0195 20.2324 7.98454 20.5949 8.97797 20.7958C10.0107 21.0033 11.0762 21.0578 12.1242 20.9356C13.1765 20.8133 14.1896 20.5338 15.1547 20.0971C16.0651 19.6843 16.9079 19.1275 17.6546 18.4637C18.3991 17.8042 19.0432 17.0247 19.5585 16.1753C20.0803 15.3127 20.4755 14.3628 20.7135 13.3824C20.9624 12.3626 21.0519 11.297 20.9711 10.2511C20.8903 9.22478 20.6633 8.20939 20.2681 7.25733C19.8751 6.29871 19.3489 5.41653 18.6917 4.61732C18.0607 3.84869 17.3053 3.18268 16.4756 2.63459C15.6328 2.07776 14.694 1.65196 13.7224 1.37682C12.718 1.09076 11.6591 0.966296 10.6155 1.00778C9.58057 1.04928 8.55003 1.24362 7.57844 1.60173C6.63523 1.94893 5.74661 2.42933 4.94969 3.04074C4.1353 3.66744 3.42352 4.40114 2.82747 5.23965C2.24451 6.05633 1.79256 6.96909 1.48252 7.92552C1.16157 8.9147 1.00219 9.96066 1 11.0001C1 11.2446 1.20087 11.4259 1.43667 11.4368C1.67247 11.4477 1.87334 11.2293 1.87334 11.0001C1.87334 10.7555 1.88208 10.5109 1.89736 10.2642C1.90828 10.1441 1.91919 10.024 1.93229 9.90388C1.93666 9.87331 1.93884 9.84492 1.94321 9.81435C1.94758 9.78815 1.94758 9.6877 1.94321 9.81217C1.94539 9.75539 1.96068 9.69425 1.96941 9.6353C2.04364 9.14835 2.15718 8.66795 2.30783 8.19847C2.37988 7.97792 2.45848 7.75738 2.54582 7.5412C2.55892 7.50844 2.56983 7.46477 2.58948 7.4342C2.53053 7.52373 2.57857 7.46477 2.59167 7.43202C2.6135 7.37742 2.63752 7.32502 2.66153 7.27261C2.70957 7.1678 2.7576 7.06298 2.81 6.96035C3.02397 6.53018 3.27069 6.11747 3.54579 5.7266C3.61784 5.62397 3.69208 5.52353 3.76631 5.42526C3.82744 5.34447 3.70517 5.50169 3.76849 5.42308C3.78596 5.40124 3.80343 5.37722 3.82089 5.35539C3.85801 5.31171 3.89294 5.26586 3.93006 5.22218C4.07634 5.04531 4.22918 4.87499 4.38638 4.70903C4.55013 4.53653 4.72043 4.37057 4.89729 4.21117C4.98898 4.12819 5.08069 4.04521 5.17675 3.9666C5.25972 3.89672 5.34706 3.80501 5.44312 3.75042C5.33832 3.80938 5.44531 3.75042 5.46932 3.73077C5.49334 3.7133 5.51517 3.69583 5.53919 3.67836C5.58504 3.64561 5.63307 3.61067 5.67892 3.57791C5.77281 3.51241 5.86669 3.4469 5.96276 3.38357C6.16144 3.25037 6.36668 3.1259 6.57628 3.01017C6.77715 2.89881 6.98238 2.79399 7.19199 2.69573C7.25312 2.66734 7.31644 2.63895 7.37757 2.61275C7.40595 2.60183 7.43216 2.58873 7.45836 2.57781C7.55224 2.53851 7.36666 2.61712 7.46054 2.57781C7.56971 2.53414 7.67669 2.49265 7.78586 2.45116C8.24436 2.28084 8.71597 2.14546 9.1963 2.04719C9.32294 2.02099 9.44957 1.99697 9.57621 1.97732C9.63516 1.96858 9.69411 1.95985 9.75306 1.95111C9.79236 1.94675 9.85567 1.91399 9.75524 1.95111C9.77926 1.94238 9.81856 1.94238 9.84476 1.94019C10.0849 1.91181 10.3273 1.89215 10.5696 1.88124C11.0784 1.8594 11.5893 1.87687 12.0936 1.93364C12.1351 1.94019 12.1744 1.94456 12.2137 1.94893C12.3185 1.96203 12.1111 1.93364 12.2159 1.94893C12.2748 1.95766 12.3338 1.9664 12.3927 1.97513C12.5106 1.99479 12.6263 2.01444 12.7442 2.03846C12.9866 2.0865 13.2246 2.14327 13.4626 2.20878C13.6875 2.27211 13.9102 2.34417 14.1307 2.42278C14.2508 2.46645 14.3687 2.51012 14.4844 2.55816C14.5084 2.5669 14.5433 2.57563 14.5652 2.59092C14.4756 2.53196 14.5346 2.58 14.5673 2.5931C14.6219 2.61494 14.6743 2.63896 14.7267 2.66298C15.1634 2.86169 15.587 3.09315 15.9887 3.35518C16.1852 3.48184 16.3752 3.6194 16.5629 3.75916C16.6524 3.82685 16.5062 3.71548 16.576 3.77007C16.5979 3.78754 16.6219 3.80501 16.6437 3.82248C16.6874 3.8596 16.7332 3.89454 16.7769 3.93166C16.8642 4.00372 16.9516 4.07797 17.0367 4.15439C17.3926 4.47102 17.7245 4.81385 18.0301 5.17851C18.0738 5.22874 18.1153 5.28114 18.1568 5.33355C18.1742 5.35539 18.1917 5.37941 18.2092 5.40124C18.2288 5.42745 18.2921 5.47767 18.2114 5.40343C18.2921 5.47767 18.3533 5.5934 18.4166 5.68075C18.5498 5.86636 18.6764 6.05852 18.7965 6.25504C18.9209 6.4603 19.0388 6.66993 19.148 6.88393C19.2048 6.99529 19.2594 7.10884 19.3118 7.22239C19.3358 7.27698 19.3598 7.32939 19.3838 7.38179C19.3947 7.41018 19.4078 7.43638 19.4188 7.46259C19.4581 7.55648 19.3795 7.37088 19.4188 7.46477C19.6043 7.91678 19.7572 8.37971 19.8729 8.85356C19.9297 9.08502 19.9755 9.31867 20.0148 9.55232C20.0279 9.6222 20.0366 9.68989 20.0476 9.75976C20.0519 9.79907 20.0847 9.86239 20.0476 9.76195C20.0563 9.78597 20.0563 9.82527 20.0585 9.85147C20.0738 9.97157 20.0847 10.0917 20.0956 10.2118C20.1371 10.7184 20.1393 11.2293 20.1 11.7381C20.0912 11.8691 20.0781 11.998 20.0628 12.129C20.0585 12.1596 20.0563 12.188 20.0519 12.2185C20.0388 12.3233 20.0672 12.1159 20.0519 12.2207C20.0432 12.2797 20.0345 12.3386 20.0257 12.3976C19.9886 12.6312 19.9428 12.8649 19.8882 13.0963C19.7746 13.5724 19.6262 14.0375 19.4428 14.4895C19.4319 14.5179 19.3969 14.6424 19.4319 14.5201C19.4231 14.5485 19.4078 14.5747 19.3969 14.6009C19.3751 14.6555 19.3511 14.7079 19.327 14.7603C19.279 14.8651 19.2288 14.9699 19.1764 15.0725C19.0694 15.2865 18.9537 15.4983 18.8292 15.7036C18.7113 15.9001 18.5847 16.0923 18.4537 16.2801C18.3817 16.3827 18.3074 16.4831 18.2332 16.5814C18.1721 16.6622 18.2943 16.505 18.231 16.5836C18.2135 16.6054 18.1961 16.6295 18.1786 16.6513C18.1415 16.695 18.1066 16.7408 18.0694 16.7845C17.766 17.1513 17.4341 17.4964 17.0804 17.8152C16.9887 17.8981 16.8948 17.9789 16.7987 18.0575C16.7551 18.0947 16.7092 18.1318 16.6655 18.1667C16.6437 18.1842 16.6197 18.2017 16.5979 18.2191C16.5717 18.2388 16.5214 18.3021 16.5957 18.2213C16.5214 18.3021 16.4057 18.3633 16.3184 18.4266C16.2245 18.4921 16.1306 18.5576 16.0346 18.6209C15.6328 18.8851 15.2136 19.1188 14.7769 19.3197C14.7158 19.3481 14.6525 19.3765 14.5914 19.4027C14.5652 19.4136 14.5368 19.4289 14.5106 19.4376C14.6241 19.4048 14.5346 19.4267 14.5084 19.4376C14.4014 19.4813 14.2922 19.5249 14.1831 19.5642C13.9647 19.645 13.742 19.7193 13.5172 19.7826C13.2813 19.8503 13.0412 19.9093 12.801 19.9573C12.6744 19.9835 12.5477 20.0075 12.4211 20.0272C12.3622 20.0359 12.3032 20.0446 12.2443 20.0534C12.205 20.0577 12.1416 20.0905 12.2421 20.0534C12.2181 20.0621 12.1788 20.0621 12.1526 20.0643C11.6482 20.1233 11.1395 20.1451 10.6308 20.1254C10.3884 20.1167 10.1461 20.0992 9.90589 20.0708C9.86441 20.0643 9.82511 20.0599 9.78581 20.0556C9.68101 20.0425 9.88842 20.0708 9.78362 20.0556C9.72467 20.0468 9.66572 20.0381 9.60677 20.0294C9.48887 20.0097 9.37315 19.9901 9.25525 19.966C8.77491 19.87 8.30113 19.7389 7.84044 19.5708C7.72254 19.5271 7.60464 19.4813 7.48892 19.4332C7.46272 19.4223 7.3732 19.4005 7.48674 19.4332C7.45835 19.4245 7.43215 19.4092 7.40595 19.3983C7.35137 19.3765 7.29897 19.3524 7.24657 19.3284C7.03697 19.2323 6.83173 19.1297 6.62868 19.0183C6.20948 18.7869 5.80992 18.5248 5.42784 18.2366C5.39072 18.2082 5.39727 18.2126 5.44749 18.2519C5.4322 18.241 5.41692 18.2279 5.40164 18.2169C5.37762 18.1995 5.35579 18.182 5.33395 18.1645C5.2881 18.1274 5.24444 18.0925 5.20077 18.0554C5.11344 17.9811 5.0261 17.9069 4.94095 17.8304C4.76192 17.671 4.59161 17.5051 4.42568 17.3348C4.26629 17.1688 4.11346 16.9985 3.96718 16.8238C3.92351 16.7736 3.88203 16.7212 3.84054 16.6688C3.82307 16.6469 3.80561 16.6229 3.78814 16.6011C3.76849 16.5749 3.70517 16.5246 3.78596 16.5989C3.70517 16.5246 3.64404 16.4089 3.58072 16.3216C3.30344 15.9307 3.05454 15.5202 2.83838 15.0922C2.78162 14.9808 2.72703 14.8673 2.67463 14.7537C2.65062 14.7013 2.62878 14.6467 2.60477 14.5943C2.59385 14.5681 2.57857 14.5397 2.56983 14.5135C2.60258 14.6271 2.58075 14.5375 2.56983 14.5113C2.48031 14.2973 2.39953 14.0768 2.32748 13.8562C2.17465 13.3889 2.05893 12.9107 1.98033 12.4238C1.96941 12.3539 1.96068 12.2862 1.94976 12.2163C1.93448 12.1115 1.96286 12.319 1.94976 12.2142C1.94539 12.1836 1.94321 12.1552 1.93884 12.1246C1.92574 12.0045 1.91264 11.8844 1.90391 11.7643C1.88426 11.5088 1.87334 11.2555 1.87334 11.0001C1.87334 10.7555 1.67466 10.5743 1.43667 10.5633Z" fill="white" stroke="white" stroke-width="0.5" stroke-linecap="round" stroke-linejoin="round"/>
<path d="M7.02601 9.32236C6.85353 9.14984 6.58279 9.16294 6.40812 9.32672C6.23345 9.48614 6.24655 9.78313 6.40812 9.94472C6.41685 9.95346 6.42777 9.96438 6.4365 9.97311C6.98889 10.5365 7.5522 11.089 8.11114 11.648C8.78143 12.3185 9.45172 12.9889 10.122 13.6593C10.1832 13.7204 10.2443 13.7838 10.3076 13.8449C10.6133 14.1441 11.0521 14.2183 11.4386 14.0327C11.6657 13.9235 11.8578 13.6811 12.0325 13.5064C12.7442 12.7945 13.4582 12.0804 14.17 11.3685C14.6438 10.8947 15.1197 10.4186 15.5935 9.94472C15.766 9.77221 15.7529 9.50142 15.5935 9.32672C15.4341 9.15202 15.1372 9.16513 14.9756 9.32672C14.9669 9.33546 14.956 9.34638 14.9472 9.35511C14.397 9.89231 13.8577 10.4448 13.3119 10.9907C12.6394 11.6633 11.9691 12.3337 11.2967 13.0063C11.229 13.074 11.1613 13.1439 11.0914 13.2116C11.0871 13.216 11.0412 13.2597 11.0412 13.2597C11.0543 13.2487 11.0674 13.24 11.0805 13.2291C11.063 13.2422 11.0456 13.2531 11.0281 13.2618C10.9735 13.2968 11.0237 13.2378 11.0478 13.2531C11.0521 13.2553 10.9888 13.2684 10.9888 13.2684C10.9888 13.2662 11.0958 13.2618 11.0019 13.2618C10.9299 13.2618 10.9779 13.2356 11.015 13.2684C11.0172 13.2706 10.9561 13.2553 10.9561 13.2531C10.9561 13.264 11.039 13.2968 10.9626 13.2531C10.8862 13.2094 10.9692 13.2444 10.9626 13.2575C10.967 13.2509 10.8403 13.1374 10.836 13.133C10.7377 13.0347 10.6417 12.9386 10.5434 12.8404C9.83381 12.1307 9.12204 11.4188 8.41245 10.709C7.94957 10.2461 7.48888 9.78531 7.02601 9.32236Z" fill="white" stroke="white" stroke-width="0.5" stroke-linecap="round" stroke-linejoin="round"/>
</svg>
