<svg width="50" height="50" viewBox="0 0 50 50" fill="none" xmlns="http://www.w3.org/2000/svg">
<circle cx="25" cy="25" r="24.5" stroke="white"/>
<path d="M19.4286 20C18.636 20 18 20.6667 18 21.4676V28.8839C18 29.6849 18.636 30.3571 19.4286 30.3571H31.5714C32.3641 30.3571 33 29.6849 33 28.8839V21.4676C33 20.6667 32.3641 20 31.5714 20H19.4286ZM19.4286 20.7143H31.5714C31.6762 20.7143 31.7776 20.7399 31.8672 20.7812L25.9632 26.2444C25.6904 26.4968 25.3269 26.4968 25.0536 26.2444L19.1384 20.7812C19.2269 20.7412 19.3256 20.7143 19.4286 20.7143ZM18.7255 21.3728L22.9163 25.2455L18.8036 29.2467C18.7493 29.1395 18.7143 29.0179 18.7143 28.8839V21.4676C18.7143 21.4348 18.722 21.4042 18.7255 21.3728H18.7255ZM32.2746 21.3783C32.2778 21.408 32.2856 21.4367 32.2856 21.4676V28.8839C32.2856 29.0151 32.2541 29.1354 32.2019 29.241L28.1004 25.2399L32.2745 21.3783H32.2746ZM27.5815 25.7198L31.5938 29.6428C31.5863 29.6428 31.5789 29.6428 31.5714 29.6428H19.4286C19.4229 29.6428 19.4175 29.6429 19.4118 29.6428L23.4408 25.7254L24.568 26.7689C25.0979 27.2583 25.9188 27.259 26.4486 26.7689L27.5814 25.7198H27.5815Z" fill="white" stroke="white" stroke-width="0.15"/>
</svg>
