<svg width="50" height="50" viewBox="0 0 50 50" fill="none" xmlns="http://www.w3.org/2000/svg">
<circle cx="25" cy="25" r="24.5" stroke="white"/>
<path d="M32.9953 32.0001V31.9995H32.999V26.4983C32.999 23.807 32.4197 21.7339 29.2734 21.7339C27.7609 21.7339 26.7459 22.5639 26.3316 23.3508H26.2878V21.9851H23.3047V31.9995H26.4109V27.0408C26.4109 25.7351 26.6584 24.4726 28.2753 24.4726C29.8684 24.4726 29.8922 25.9626 29.8922 27.1245V32.0001H32.9953Z" fill="white"/>
<path d="M18.248 21.9856H21.358V32H18.248V21.9856Z" fill="white"/>
<path d="M19.8012 17C18.8069 17 18 17.8069 18 18.8012C18 19.7956 18.8069 20.6194 19.8012 20.6194C20.7956 20.6194 21.6025 19.7956 21.6025 18.8012C21.6019 17.8069 20.795 17 19.8012 17V17Z" fill="white"/>
</svg>
