<svg width="22" height="22" viewBox="0 0 22 22" fill="none" xmlns="http://www.w3.org/2000/svg">
<path d="M10.5633 20.5633C10.5524 20.7991 10.7708 21 11.0001 21C11.5263 21 12.0482 20.9541 12.5679 20.8755C13.5811 20.7205 14.5659 20.3974 15.483 19.9411C16.374 19.4957 17.1994 18.9083 17.92 18.2206C18.6384 17.535 19.2585 16.7337 19.7411 15.8648C20.2324 14.9805 20.5949 14.0155 20.7958 13.022C21.0033 11.9893 21.0578 10.9238 20.9356 9.87583C20.8133 8.82345 20.5338 7.81038 20.0971 6.84534C19.6843 5.93488 19.1275 5.0921 18.4637 4.3454C17.8042 3.60088 17.0247 2.95679 16.1753 2.44152C15.3127 1.91969 14.3628 1.52451 13.3824 1.28652C12.3626 1.03762 11.297 0.948103 10.2511 1.02889C9.22478 1.10967 8.20939 1.33674 7.25733 1.73193C6.29871 2.12493 5.41653 2.65112 4.61732 3.30831C3.84869 3.93929 3.18268 4.69473 2.63459 5.52441C2.07776 6.36718 1.65196 7.30602 1.37682 8.27761C1.09076 9.28195 0.966297 10.3409 1.00779 11.3845C1.04928 12.4194 1.24362 13.45 1.60173 14.4216C1.94893 15.3648 2.42933 16.2534 3.04074 17.0503C3.66744 17.8647 4.40114 18.5765 5.23966 19.1725C6.05633 19.7555 6.96909 20.2074 7.92552 20.5175C8.9147 20.8384 9.96066 20.9978 11.0001 21C11.2446 21 11.4259 20.7991 11.4368 20.5633C11.4477 20.3275 11.2293 20.1267 11.0001 20.1267C10.7555 20.1267 10.5109 20.1179 10.2642 20.1026C10.1441 20.0917 10.024 20.0808 9.90388 20.0677C9.87331 20.0633 9.84492 20.0612 9.81435 20.0568C9.78815 20.0524 9.6877 20.0524 9.81217 20.0568C9.7554 20.0546 9.69425 20.0393 9.6353 20.0306C9.14835 19.9564 8.66795 19.8428 8.19847 19.6922C7.97792 19.6201 7.75738 19.5415 7.5412 19.4542C7.50844 19.4411 7.46477 19.4302 7.4342 19.4105C7.52373 19.4695 7.46477 19.4214 7.43202 19.4083C7.37743 19.3865 7.32502 19.3625 7.27261 19.3385C7.1678 19.2904 7.06298 19.2424 6.96035 19.19C6.53018 18.976 6.11747 18.7293 5.7266 18.4542C5.62397 18.3822 5.52353 18.3079 5.42526 18.2337C5.34447 18.1726 5.50169 18.2948 5.42308 18.2315C5.40124 18.214 5.37722 18.1966 5.35539 18.1791C5.31172 18.142 5.26586 18.1071 5.22219 18.0699C5.04531 17.9237 4.87499 17.7708 4.70903 17.6136C4.53653 17.4499 4.37057 17.2796 4.21117 17.1027C4.12819 17.011 4.04521 16.9193 3.9666 16.8232C3.89672 16.7403 3.80501 16.6529 3.75042 16.5569C3.80938 16.6617 3.75042 16.5547 3.73077 16.5307C3.7133 16.5067 3.69583 16.4848 3.67836 16.4608C3.64561 16.415 3.61067 16.3669 3.57791 16.3211C3.51241 16.2272 3.4469 16.1333 3.38357 16.0372C3.25037 15.8386 3.1259 15.6333 3.01017 15.4237C2.89881 15.2229 2.79399 15.0176 2.69573 14.808C2.66734 14.7469 2.63896 14.6836 2.61275 14.6224C2.60183 14.594 2.58873 14.5678 2.57781 14.5416C2.53851 14.4478 2.61712 14.6333 2.57781 14.5395C2.53414 14.4303 2.49265 14.3233 2.45116 14.2141C2.28084 13.7556 2.14546 13.284 2.04719 12.8037C2.02099 12.6771 1.99697 12.5504 1.97732 12.4238C1.96858 12.3648 1.95985 12.3059 1.95111 12.2469C1.94675 12.2076 1.91399 12.1443 1.95111 12.2448C1.94238 12.2207 1.94238 12.1814 1.94019 12.1552C1.91181 11.9151 1.89215 11.6727 1.88124 11.4304C1.8594 10.9217 1.87687 10.4107 1.93364 9.90639C1.94019 9.86491 1.94456 9.82561 1.94893 9.78631C1.96203 9.68151 1.93364 9.88893 1.94893 9.78412C1.95766 9.72517 1.9664 9.66622 1.97513 9.60727C1.99479 9.48937 2.01444 9.37366 2.03846 9.25575C2.0865 9.0134 2.14327 8.77542 2.20878 8.53743C2.27211 8.31255 2.34417 8.08984 2.42278 7.86933C2.46645 7.74924 2.51012 7.63134 2.55816 7.51562C2.5669 7.49161 2.57563 7.45667 2.59092 7.43484C2.53196 7.52436 2.58 7.46541 2.5931 7.43266C2.61494 7.37807 2.63896 7.32567 2.66298 7.27327C2.86169 6.8366 3.09315 6.41303 3.35518 6.01129C3.48184 5.81479 3.6194 5.62484 3.75916 5.43707C3.82685 5.34756 3.71548 5.49384 3.77007 5.42397C3.78754 5.40214 3.80501 5.37812 3.82248 5.35629C3.8596 5.31262 3.89454 5.26677 3.93166 5.2231C4.00372 5.13577 4.07797 5.04844 4.15439 4.96329C4.47102 4.6074 4.81385 4.27553 5.17851 3.96986C5.22874 3.92619 5.28114 3.88471 5.33355 3.84323C5.35539 3.82576 5.37941 3.80829 5.40124 3.79083C5.42745 3.77118 5.47767 3.70786 5.40343 3.78864C5.47767 3.70786 5.5934 3.64673 5.68075 3.58341C5.86636 3.45022 6.05852 3.32359 6.25504 3.2035C6.4603 3.07905 6.66993 2.96115 6.88393 2.85199C6.99529 2.79522 7.10884 2.74063 7.22239 2.68823C7.27698 2.66422 7.32939 2.6402 7.38179 2.61618C7.41018 2.60527 7.43638 2.59217 7.46259 2.58125C7.55648 2.54195 7.37088 2.62055 7.46477 2.58125C7.91678 2.39567 8.37971 2.24283 8.85356 2.12711C9.08502 2.07035 9.31867 2.0245 9.55232 1.9852C9.6222 1.97209 9.68989 1.96336 9.75976 1.95244C9.79907 1.94808 9.86239 1.91533 9.76195 1.95244C9.78597 1.94371 9.82527 1.94371 9.85147 1.94153C9.97157 1.92624 10.0917 1.91533 10.2118 1.90441C10.7184 1.86293 11.2293 1.86074 11.7381 1.90004C11.8691 1.90878 11.998 1.92188 12.129 1.93716C12.1596 1.94153 12.188 1.94371 12.2185 1.94808C12.3233 1.96118 12.1159 1.93279 12.2207 1.94808C12.2797 1.95681 12.3386 1.96554 12.3976 1.97428C12.6312 2.0114 12.8649 2.05725 13.0963 2.11183C13.5724 2.22536 14.0375 2.37383 14.4895 2.55723C14.5179 2.56815 14.6424 2.60308 14.5201 2.56815C14.5485 2.57688 14.5747 2.59217 14.6009 2.60308C14.6555 2.62492 14.7079 2.64893 14.7603 2.67295C14.8651 2.72098 14.9699 2.7712 15.0725 2.8236C15.2865 2.93059 15.4983 3.0463 15.7036 3.17075C15.9001 3.28866 16.0923 3.41529 16.2801 3.54629C16.3827 3.61834 16.4831 3.69258 16.5814 3.76681C16.6622 3.82794 16.505 3.70568 16.5836 3.76899C16.6054 3.78646 16.6295 3.80393 16.6513 3.82139C16.695 3.85851 16.7408 3.89344 16.7845 3.93056C17.1513 4.23405 17.4964 4.56592 17.8152 4.91962C17.8981 5.01132 17.9789 5.1052 18.0575 5.20127C18.0947 5.24494 18.1318 5.29079 18.1667 5.33446C18.1842 5.35629 18.2017 5.38031 18.2191 5.40214C18.2388 5.42834 18.3021 5.47856 18.2213 5.40432C18.3021 5.47856 18.3633 5.59427 18.4266 5.68161C18.4921 5.77549 18.5576 5.86938 18.6209 5.96544C18.8851 6.36718 19.1188 6.78638 19.3197 7.22305C19.3481 7.28419 19.3765 7.34751 19.4027 7.40864C19.4136 7.43484 19.4289 7.46322 19.4376 7.48942C19.4048 7.37589 19.4267 7.46541 19.4376 7.49161C19.4813 7.59859 19.5249 7.70776 19.5642 7.81693C19.645 8.03526 19.7193 8.25796 19.7826 8.48285C19.8503 8.71865 19.9093 8.95882 19.9573 9.19899C19.9835 9.32562 20.0075 9.45226 20.0272 9.57889C20.0359 9.63784 20.0446 9.69679 20.0534 9.75574C20.0577 9.79504 20.0905 9.85836 20.0534 9.75793C20.0621 9.78194 20.0621 9.82124 20.0643 9.84744C20.1233 10.3518 20.1451 10.8605 20.1254 11.3692C20.1167 11.6116 20.0992 11.8539 20.0708 12.0941C20.0643 12.1356 20.0599 12.1749 20.0556 12.2142C20.0425 12.319 20.0708 12.1116 20.0556 12.2164C20.0468 12.2753 20.0381 12.3343 20.0294 12.3932C20.0097 12.5111 19.9901 12.6268 19.966 12.7447C19.87 13.2251 19.7389 13.6989 19.5708 14.1596C19.5271 14.2775 19.4813 14.3954 19.4332 14.5111C19.4223 14.5373 19.4005 14.6268 19.4332 14.5133C19.4245 14.5416 19.4092 14.5678 19.3983 14.594C19.3765 14.6486 19.3524 14.701 19.3284 14.7534C19.2323 14.963 19.1297 15.1683 19.0183 15.3713C18.7869 15.7905 18.5248 16.1901 18.2366 16.5722C18.2082 16.6093 18.2126 16.6027 18.2519 16.5525C18.241 16.5678 18.2279 16.5831 18.2169 16.5984C18.1995 16.6224 18.182 16.6442 18.1645 16.666C18.1274 16.7119 18.0925 16.7556 18.0554 16.7992C17.9811 16.8866 17.9069 16.9739 17.8304 17.0591C17.671 17.2381 17.5051 17.4084 17.3348 17.5743C17.1688 17.7337 16.9985 17.8865 16.8238 18.0328C16.7736 18.0765 16.7212 18.118 16.6688 18.1595C16.6469 18.1769 16.6229 18.1944 16.6011 18.2119C16.5749 18.2315 16.5246 18.2948 16.5989 18.214C16.5246 18.2948 16.4089 18.356 16.3216 18.4193C15.9307 18.6966 15.5202 18.9455 15.0922 19.1616C14.9808 19.2184 14.8673 19.273 14.7537 19.3254C14.7013 19.3494 14.6467 19.3712 14.5943 19.3952C14.5681 19.4062 14.5397 19.4214 14.5135 19.4302C14.6271 19.3974 14.5375 19.4193 14.5113 19.4302C14.2973 19.5197 14.0768 19.6005 13.8562 19.6725C13.389 19.8254 12.9107 19.9411 12.4238 20.0197C12.3539 20.0306 12.2862 20.0393 12.2163 20.0502C12.1115 20.0655 12.319 20.0371 12.2142 20.0502C12.1836 20.0546 12.1552 20.0568 12.1246 20.0612C12.0045 20.0743 11.8844 20.0874 11.7643 20.0961C11.5088 20.1157 11.2555 20.1267 11.0001 20.1267C10.7555 20.1267 10.5743 20.3253 10.5633 20.5633Z" fill="white" stroke="white" stroke-width="0.5" stroke-linecap="round" stroke-linejoin="round"/>
<path d="M9.32304 14.974C9.15053 15.1464 9.16364 15.4172 9.32741 15.5918C9.48681 15.7665 9.78379 15.7534 9.94538 15.5918C9.95411 15.5831 9.96503 15.5722 9.97376 15.5635C10.5371 15.0111 11.0896 14.4478 11.6486 13.8888C12.319 13.2185 12.9893 12.5482 13.6597 11.878C13.7209 11.8168 13.7842 11.7557 13.8453 11.6924C14.1445 11.3867 14.2187 10.9479 14.0331 10.5614C13.9239 10.3343 13.6816 10.1422 13.5069 9.96753C12.795 9.25576 12.081 8.5418 11.3691 7.83003C10.8953 7.35624 10.4192 6.88027 9.94538 6.40648C9.77287 6.234 9.5021 6.2471 9.32741 6.40648C9.15272 6.56587 9.16582 6.8628 9.32741 7.02437C9.33614 7.0331 9.34706 7.04402 9.3558 7.05275C9.89297 7.60296 10.4454 8.14225 10.9913 8.68808C11.6639 9.36056 12.3343 10.0308 13.0068 10.7033C13.0745 10.771 13.1444 10.8387 13.2121 10.9086C13.2164 10.9129 13.2601 10.9588 13.2601 10.9588C13.2492 10.9457 13.2405 10.9326 13.2295 10.9195C13.2427 10.9369 13.2536 10.9544 13.2623 10.9719C13.2972 11.0265 13.2383 10.9762 13.2536 10.9522C13.2558 10.9479 13.2689 11.0112 13.2689 11.0112C13.2667 11.0112 13.2623 10.9042 13.2623 10.9981C13.2623 11.0701 13.2361 11.0221 13.2689 10.985C13.271 10.9828 13.2558 11.0439 13.2536 11.0439C13.2645 11.0439 13.2972 10.961 13.2536 11.0374C13.2099 11.1138 13.2448 11.0308 13.2579 11.0374C13.2514 11.033 13.1378 11.1596 13.1335 11.164C13.0352 11.2623 12.9391 11.3583 12.8409 11.4566C12.1312 12.1662 11.4193 12.8779 10.7096 13.5875C10.2467 14.0504 9.78597 14.5111 9.32304 14.974Z" fill="white" stroke="white" stroke-width="0.5" stroke-linecap="round" stroke-linejoin="round"/>
</svg>
