<svg width="26" height="26" viewBox="0 0 26 26" fill="none" xmlns="http://www.w3.org/2000/svg">
<path d="M12.4323 25.4323C12.4181 25.7389 12.702 26 13.0001 26C13.6842 26 14.3627 25.9404 15.0383 25.8382C16.3554 25.6367 17.6357 25.2166 18.828 24.6234C19.9862 24.0444 21.0592 23.2809 21.996 22.3868C22.9299 21.4955 23.7361 20.4539 24.3635 19.3242C25.0022 18.1747 25.4734 16.9201 25.7346 15.6286C26.0042 14.2861 26.0752 12.901 25.9162 11.5386C25.7573 10.1705 25.3939 8.85349 24.8262 7.59894C24.2897 6.41534 23.5658 5.31974 22.7028 4.34902C21.8455 3.38114 20.8321 2.54382 19.7278 1.87397C18.6065 1.1956 17.3717 0.681861 16.0971 0.37248C14.7714 0.0489071 13.3861 -0.0674656 12.0264 0.0375535C10.6922 0.142573 9.37221 0.437762 8.13453 0.951504C6.88833 1.46241 5.74149 2.14645 4.70252 3.0008C3.70329 3.82108 2.83748 4.80315 2.12497 5.88173C1.40109 6.97733 0.847545 8.19783 0.489868 9.4609C0.117996 10.7665 -0.0438123 12.1431 0.0101236 13.4999C0.0640596 14.8453 0.316705 16.185 0.782254 17.448C1.23361 18.6742 1.85813 19.8294 2.65297 20.8654C3.46768 21.9241 4.42149 22.8494 5.51155 23.6243C6.57323 24.3821 7.75982 24.9697 9.00317 25.3727C10.2891 25.79 11.6489 25.9972 13.0001 26C13.318 26 13.5536 25.7389 13.5678 25.4323C13.582 25.1258 13.2981 24.8647 13.0001 24.8647C12.6821 24.8647 12.3642 24.8533 12.0434 24.8334C11.8873 24.8192 11.7312 24.8051 11.575 24.788C11.5353 24.7823 11.4984 24.7795 11.4587 24.7738C11.4246 24.7682 11.294 24.7682 11.4558 24.7738C11.382 24.771 11.3025 24.7511 11.2259 24.7398C10.5929 24.6433 9.96834 24.4957 9.35801 24.2998C9.0713 24.2062 8.78459 24.104 8.50356 23.9904C8.46098 23.9734 8.4042 23.9592 8.36446 23.9337C8.48085 24.0103 8.4042 23.9479 8.36162 23.9308C8.29065 23.9025 8.22253 23.8712 8.1544 23.84C8.01814 23.7776 7.88188 23.7151 7.74846 23.647C7.18923 23.3688 6.65272 23.0481 6.14459 22.6905C6.01117 22.5968 5.88059 22.5003 5.75284 22.4038C5.64781 22.3243 5.8522 22.4833 5.75 22.401C5.72162 22.3783 5.69039 22.3555 5.66201 22.3328C5.60523 22.2846 5.54562 22.2392 5.48884 22.1909C5.25891 22.0008 5.03749 21.8021 4.82174 21.5977C4.59749 21.3848 4.38175 21.1634 4.17452 20.9335C4.06665 20.8143 3.95878 20.6951 3.85658 20.5702C3.76574 20.4624 3.64652 20.3488 3.57555 20.2239C3.6522 20.3602 3.57555 20.2211 3.55 20.1899C3.52729 20.1587 3.50458 20.1303 3.48187 20.0991C3.43929 20.0394 3.39387 19.977 3.35129 19.9174C3.26613 19.7954 3.18097 19.6733 3.09865 19.5484C2.92548 19.2901 2.76368 19.0233 2.61323 18.7508C2.46845 18.4897 2.33219 18.2229 2.20445 17.9504C2.16755 17.8709 2.13064 17.7886 2.09658 17.7092C2.08239 17.6723 2.06535 17.6382 2.05116 17.6041C2.00006 17.4821 2.10226 17.7234 2.05116 17.6013C1.99439 17.4594 1.94045 17.3203 1.88652 17.1784C1.6651 16.5823 1.48909 15.9692 1.36135 15.3448C1.32729 15.1802 1.29606 15.0156 1.27051 14.8509C1.25916 14.7743 1.2478 14.6977 1.23645 14.621C1.23077 14.5699 1.18819 14.4876 1.23645 14.6182C1.22509 14.587 1.22509 14.5359 1.22226 14.5018C1.18535 14.1896 1.1598 13.8745 1.14561 13.5595C1.11722 12.8981 1.13993 12.234 1.21374 11.5783C1.22226 11.5244 1.22793 11.4733 1.23361 11.4222C1.25064 11.286 1.21374 11.5556 1.23361 11.4194C1.24497 11.3427 1.25632 11.2661 1.26768 11.1895C1.29322 11.0362 1.31877 10.8858 1.35 10.7325C1.41245 10.4174 1.48626 10.108 1.57142 9.79866C1.65374 9.50631 1.74742 9.2168 1.84961 8.93012C1.90639 8.77401 1.96316 8.62074 2.02561 8.47031C2.03697 8.43909 2.04832 8.39367 2.06819 8.36529C1.99155 8.48166 2.054 8.40503 2.07103 8.36245C2.09942 8.29149 2.13065 8.22337 2.16187 8.15525C2.42019 7.58758 2.7211 7.03694 3.06174 6.51468C3.22639 6.25923 3.40523 6.01229 3.5869 5.7682C3.67491 5.65182 3.53013 5.84199 3.6011 5.75116C3.62381 5.72278 3.64652 5.69156 3.66923 5.66318C3.71749 5.60641 3.7629 5.5468 3.81116 5.49004C3.90484 5.3765 4.00136 5.26297 4.10071 5.15227C4.51233 4.68962 4.958 4.25819 5.43207 3.86082C5.49736 3.80405 5.56549 3.75012 5.63362 3.69619C5.66201 3.67349 5.69323 3.65078 5.72162 3.62807C5.75568 3.60253 5.82097 3.52022 5.72446 3.62524C5.82097 3.52022 5.97143 3.44074 6.08497 3.35843C6.32627 3.18529 6.57607 3.02067 6.83156 2.86456C7.0984 2.70277 7.37091 2.5495 7.64911 2.40758C7.79388 2.33378 7.94149 2.26282 8.08911 2.1947C8.16007 2.16348 8.2282 2.13226 8.29633 2.10104C8.33324 2.08685 8.3673 2.06982 8.40137 2.05562C8.52343 2.00453 8.28214 2.10672 8.4042 2.05562C8.99182 1.81436 9.59363 1.61568 10.2096 1.46525C10.5105 1.39145 10.8143 1.33184 11.118 1.28075C11.2089 1.26372 11.2969 1.25237 11.3877 1.23818C11.4388 1.2325 11.5211 1.18993 11.3905 1.23818C11.4218 1.22682 11.4729 1.22682 11.5069 1.22399C11.663 1.20412 11.8192 1.18993 11.9753 1.17573C12.6339 1.12181 13.2981 1.11897 13.9596 1.17006C14.1299 1.18141 14.2974 1.19844 14.4677 1.21831C14.5074 1.22399 14.5443 1.22682 14.5841 1.2325C14.7203 1.24953 14.4507 1.21263 14.5869 1.2325C14.6636 1.24386 14.7402 1.25521 14.8169 1.26656C15.1206 1.31481 15.4243 1.37442 15.7252 1.44538C16.3441 1.59297 16.9487 1.78598 17.5363 2.0244C17.5733 2.0386 17.7351 2.08401 17.5761 2.0386C17.613 2.04995 17.6471 2.06982 17.6811 2.08401C17.7521 2.11239 17.8202 2.14361 17.8883 2.17484C18.0246 2.23728 18.1609 2.30256 18.2943 2.37068C18.5725 2.50976 18.8478 2.6602 19.1147 2.82198C19.3702 2.97525 19.62 3.13988 19.8641 3.31018C19.9975 3.40384 20.1281 3.50035 20.2558 3.59685C20.3609 3.67633 20.1565 3.51738 20.2587 3.59969C20.2871 3.6224 20.3183 3.64511 20.3467 3.66781C20.4035 3.71606 20.4631 3.76148 20.5198 3.80973C20.9967 4.20426 21.4453 4.63569 21.8597 5.09551C21.9676 5.21472 22.0726 5.33677 22.1748 5.46165C22.2231 5.51842 22.2713 5.57803 22.3167 5.63479C22.3395 5.66318 22.3622 5.6944 22.3849 5.72278C22.4104 5.75684 22.4927 5.82212 22.3877 5.72562C22.4927 5.82212 22.5722 5.97256 22.6546 6.08609C22.7397 6.20814 22.8249 6.33019 22.9072 6.45508C23.2507 6.97734 23.5544 7.5223 23.8156 8.08997C23.8525 8.16944 23.8894 8.25176 23.9235 8.33123C23.9377 8.36529 23.9575 8.40219 23.9689 8.43625C23.9263 8.28866 23.9547 8.40503 23.9689 8.43909C24.0257 8.57817 24.0824 8.72009 24.1335 8.86201C24.2386 9.14584 24.3351 9.43535 24.4174 9.7277C24.5054 10.0342 24.582 10.3465 24.6445 10.6587C24.6786 10.8233 24.7098 10.9879 24.7353 11.1526C24.7467 11.2292 24.758 11.3058 24.7694 11.3825C24.7751 11.4336 24.8177 11.5159 24.7694 11.3853C24.7807 11.4165 24.7807 11.4676 24.7836 11.5017C24.8602 12.1573 24.8886 12.8187 24.8631 13.48C24.8517 13.7951 24.829 14.1101 24.7921 14.4223C24.7836 14.4763 24.7779 14.5274 24.7722 14.5785C24.7552 14.7147 24.7921 14.4451 24.7722 14.5813C24.7609 14.6579 24.7495 14.7346 24.7382 14.8112C24.7126 14.9645 24.6871 15.1149 24.6558 15.2682C24.5309 15.8926 24.3606 16.5085 24.142 17.1074C24.0853 17.2607 24.0257 17.414 23.9632 17.5644C23.949 17.5985 23.9206 17.7148 23.9632 17.5672C23.9518 17.6041 23.932 17.6382 23.9178 17.6723C23.8894 17.7432 23.8582 17.8113 23.8269 17.8795C23.702 18.1519 23.5686 18.4188 23.4238 18.6827C23.1229 19.2277 22.7823 19.7471 22.4076 20.2438C22.3707 20.2921 22.3764 20.2836 22.4275 20.2183C22.4133 20.2381 22.3962 20.258 22.382 20.2779C22.3593 20.3091 22.3366 20.3375 22.3139 20.3659C22.2656 20.4255 22.2202 20.4822 22.172 20.539C22.0755 20.6525 21.9789 20.7661 21.8796 20.8768C21.6724 21.1095 21.4566 21.3309 21.2352 21.5466C21.0195 21.7538 20.798 21.9525 20.5709 22.1427C20.5056 22.1994 20.4375 22.2534 20.3694 22.3073C20.341 22.33 20.3098 22.3527 20.2814 22.3754C20.2473 22.401 20.182 22.4833 20.2785 22.3783C20.182 22.4833 20.0316 22.5627 19.918 22.6451C19.4099 23.0055 18.8762 23.3291 18.3198 23.6101C18.1751 23.6839 18.0274 23.7549 17.8798 23.823C17.8117 23.8542 17.7407 23.8826 17.6726 23.9138C17.6385 23.928 17.6016 23.9479 17.5676 23.9592C17.7152 23.9166 17.5988 23.945 17.5647 23.9592C17.2865 24.0756 16.9998 24.1806 16.7131 24.2743C16.1056 24.473 15.484 24.6234 14.8509 24.7256C14.7601 24.7398 14.6721 24.7511 14.5812 24.7653C14.445 24.7852 14.7147 24.7483 14.5784 24.7653C14.5387 24.771 14.5018 24.7738 14.462 24.7795C14.3059 24.7965 14.1498 24.8136 13.9936 24.8249C13.6615 24.8505 13.3322 24.8647 13.0001 24.8647C12.6821 24.8647 12.4465 25.1229 12.4323 25.4323Z" fill="white"/>
<path d="M10.82 18.1657C10.5957 18.3899 10.6127 18.7419 10.8256 18.9689C11.0329 19.196 11.4189 19.179 11.629 18.9689C11.6404 18.9576 11.6546 18.9434 11.6659 18.932C12.3983 18.214 13.1165 17.4817 13.8432 16.7552C14.7147 15.8838 15.5862 15.0125 16.4577 14.1412C16.5371 14.0617 16.6195 13.9823 16.699 13.9C17.0879 13.5026 17.1844 12.9322 16.9431 12.4298C16.8011 12.1346 16.486 11.8849 16.259 11.6578C15.3335 10.7326 14.4053 9.8045 13.4798 8.87926C12.8638 8.26338 12.245 7.64466 11.629 7.02878C11.4047 6.80457 11.0527 6.8216 10.8256 7.02878C10.5985 7.23597 10.6156 7.62196 10.8256 7.83198C10.837 7.84333 10.8512 7.85752 10.8625 7.86888C11.5609 8.58409 12.2791 9.28512 12.9887 9.99466C13.8631 10.8688 14.7346 11.7401 15.6089 12.6143C15.6969 12.7023 15.7877 12.7903 15.8757 12.8811C15.8814 12.8867 15.9382 12.9464 15.9382 12.9464C15.924 12.9293 15.9126 12.9123 15.8984 12.8953C15.9155 12.918 15.9297 12.9407 15.941 12.9634C15.9864 13.0343 15.9098 12.9691 15.9297 12.9378C15.9325 12.9322 15.9495 13.0145 15.9495 13.0145C15.9467 13.0145 15.941 12.8754 15.941 12.9974C15.941 13.0911 15.907 13.0287 15.9495 12.9804C15.9524 12.9776 15.9325 13.057 15.9297 13.057C15.9439 13.057 15.9864 12.9492 15.9297 13.0485C15.8729 13.1479 15.9183 13.04 15.9353 13.0485C15.9268 13.0428 15.7792 13.2075 15.7735 13.2131C15.6458 13.3409 15.5209 13.4657 15.3931 13.5935C14.4706 14.5159 13.5451 15.4411 12.6226 16.3635C12.0207 16.9652 11.4218 17.564 10.82 18.1657Z" fill="white"/>
</svg>
